<?xml version="1.0" encoding="UTF-8"?> <svg xmlns="http://www.w3.org/2000/svg" id="Layer_1" version="1.1" viewBox="0 0 71.8 82.3"><defs><style> .st0 { fill: #ff6900; } .st1 { fill: #2eadc4; } .st2 { fill: #491904; } .st3 { fill: #ffb03a; } .st4 { fill: #021823; } .st5 { fill: #006ea0; } </style></defs><g><g><rect class="st4" x="46.6" y="9.4" width="10.1" height="16.8" transform="translate(-1.8 6.6) rotate(-7.2)"></rect><rect class="st5" x="47.3" y="10.1" width="8.7" height="15.4" transform="translate(-1.8 6.6) rotate(-7.2)"></rect></g><g><rect class="st4" x="47.9" y="10.6" width="7.6" height="14.3" transform="translate(-1.8 6.6) rotate(-7.2)"></rect><rect class="st1" x="48.6" y="11.3" width="6.2" height="12.9" transform="translate(-1.8 6.6) rotate(-7.2)"></rect></g><rect class="st4" x="50.7" y="12.1" width=".7" height="1.9" transform="translate(-1.2 6.6) rotate(-7.3)"></rect><rect class="st4" x="51.9" y="21.4" width=".7" height="1.9" transform="translate(-2.4 6.6) rotate(-7.1)"></rect><g><path class="st4" d="M52,20.8c1.4-.2,2.7-.9,3.2-2,.3-.5.4-1.1.3-1.6-.1-.8-.6-1.6-1.5-2.1-.8-.5-1.8-.7-2.9-.5-1.4.2-2.7.9-3.2,2-.3.5-.4,1.1-.3,1.6.1.8.6,1.6,1.5,2.1.8.5,1.8.7,2.9.5Z"></path><path class="st5" d="M54.7,18.5c.2-.4.3-.8.2-1.2,0-.6-.5-1.2-1.1-1.5-.7-.4-1.6-.5-2.4-.4-1.2.2-2.2.8-2.7,1.6-.2.4-.3.8-.2,1.2,0,.6.5,1.2,1.1,1.5.7.4,1.6.6,2.4.4,1.2-.2,2.2-.8,2.7-1.6Z"></path></g></g><g><g><rect class="st4" x="10.7" y="27.8" width="16.8" height="10.1" transform="translate(-14.5 15) rotate(-31.9)"></rect><rect class="st5" x="11.4" y="28.5" width="15.4" height="8.7" transform="translate(-14.5 15) rotate(-31.9)"></rect></g><g><rect class="st4" x="12" y="29.1" width="14.3" height="7.6" transform="translate(-14.5 15) rotate(-31.9)"></rect><rect class="st1" x="12.7" y="29.8" width="12.9" height="6.2" transform="translate(-14.5 15.1) rotate(-31.9)"></rect></g><rect class="st4" x="22.1" y="30" width="1.9" height=".7" transform="translate(-12.6 16.8) rotate(-31.9)"></rect><polygon class="st4" points="15.8 34.5 16.1 35.1 14.5 36.1 14.1 35.5 15.8 34.5"></polygon><g><path class="st4" d="M16.5,34.5c.8,1.2,2,2,3.2,2.1.6,0,1.1,0,1.6-.4.7-.4,1.2-1.2,1.3-2.2,0-.9-.2-1.9-.7-2.8-.8-1.2-2-2-3.2-2.1-.6,0-1.1,0-1.6.4-.7.4-1.2,1.2-1.3,2.2,0,.9.2,1.9.7,2.8Z"></path><path class="st5" d="M19.7,35.9c.4,0,.8,0,1.2-.3.5-.3.9-.9.9-1.7,0-.8-.2-1.6-.6-2.4-.6-1-1.6-1.7-2.6-1.8-.4,0-.8,0-1.2.3-.5.3-.9.9-.9,1.7,0,.8.1,1.6.6,2.4.6,1,1.6,1.7,2.6,1.8Z"></path></g></g><g><g><rect class="st4" x="46.9" y="46.5" width="10.1" height="16.8" transform="translate(-22.7 66.3) rotate(-55.3)"></rect><rect class="st5" x="47.6" y="47.2" width="8.7" height="15.4" transform="translate(-22.7 66.3) rotate(-55.3)"></rect></g><g><rect class="st4" x="48.2" y="47.7" width="7.6" height="14.3" transform="translate(-22.7 66.3) rotate(-55.3)"></rect><rect class="st1" x="48.9" y="48.4" width="6.2" height="12.9" transform="translate(-22.7 66.3) rotate(-55.3)"></rect></g><rect class="st4" x="55.5" y="56.5" width=".7" height="1.9" transform="translate(-23.2 70.6) rotate(-55.3)"></rect><rect class="st4" x="47.8" y="51.2" width=".7" height="1.9" transform="translate(-22.2 61.9) rotate(-55.2)"></rect><g><path class="st4" d="M49.4,53.1c-.8,1.2-1.1,2.6-.7,3.7.2.6.5,1,1,1.3.7.5,1.6.6,2.5.3.9-.3,1.7-.9,2.3-1.8.8-1.2,1.1-2.6.7-3.7-.2-.6-.5-1-1-1.3-.7-.5-1.6-.6-2.5-.3-.9.3-1.7.9-2.3,1.8Z"></path><path class="st5" d="M49.4,56.6c.1.4.4.7.7,1,.5.4,1.2.4,1.9.2.7-.2,1.4-.8,2-1.5.7-1,.9-2.2.6-3.1-.1-.4-.4-.7-.7-1-.5-.4-1.2-.4-1.9-.2-.7.2-1.4.8-2,1.5-.7,1-.9,2.2-.6,3.1Z"></path></g></g><g><polygon class="st2" points="65.7 45.5 66.7 44 61.1 40.2 65.9 37.6 65.1 35.9 62.3 37.1 63.1 33.5 61.3 33 59.5 38.2 38.9 46.9 38.6 41.4 63.7 27.6 62.9 25.9 54.7 29.4 55.4 24.2 53.5 23.8 51.9 30.5 38.4 36.2 38.1 30.8 59.7 15.8 58.7 14.2 50.7 18.6 51.1 13.2 49.2 13 47.9 20.2 37.8 25.7 37.4 19 50.4 9.3 49.3 7.7 37.2 15 36.7 5.6 34.9 5.6 34.4 15 22.3 7.7 21.2 9.3 34.2 19 33.8 25.7 30.7 24 26.8 15.8 25.1 16.5 27 22 12.9 14.2 11.9 15.8 33.5 30.8 33.2 36.2 16.7 29.2 13 22.9 11.4 23.7 13.1 27.8 8.7 25.9 7.9 27.6 33 41.4 32.7 46.9 13.1 38.7 9.4 32.6 7.7 33.4 9.5 37.2 6.5 35.9 5.7 37.6 15.3 42.9 9.8 46 10.6 47.7 18.1 44.4 32.4 52.3 32.2 56.7 9.6 48.8 8.9 50.5 12.2 52.1 8.4 53.9 9.1 55.6 15.2 53.5 31.9 61.5 30.8 82.3 40.8 82.3 39.7 61.5 62.7 50.5 62 48.8 56.3 50.8 57.5 47.4 55.8 46.6 53.3 51.9 39.5 56.7 39.2 52.3 58.5 41.7 65.7 45.5"></polygon><polygon class="st3" points="59.8 40.1 65 37.3 64.7 36.8 61.3 38.2 62.3 34 61.8 33.8 60.1 38.8 38.3 48 37.9 41 62.8 27.3 62.5 26.8 53.8 30.5 54.6 24.7 54.1 24.6 52.5 31 37.7 37.3 37.4 30.5 58.8 15.6 58.5 15.2 49.9 19.9 50.3 13.8 49.8 13.8 48.5 20.6 37.2 26.8 36.7 18.7 49.4 9.1 49.1 8.7 36.6 16.1 36.1 6.3 35.5 6.3 35 16.1 22.5 8.7 22.2 9.1 34.9 18.7 34.4 26.8 30.2 24.5 26.5 16.7 26 16.9 28.3 23.5 13.1 15.2 12.8 15.6 34.2 30.5 33.9 37.3 16.2 29.8 12.8 23.8 12.3 24.1 14.5 29.1 9.1 26.8 8.8 27.3 33.7 41 33.3 48 12.6 39.2 9.1 33.5 8.7 33.7 10.9 38.5 6.9 36.8 6.6 37.3 16.8 42.9 10.7 46.3 10.9 46.8 18.2 43.7 33.1 51.9 32.8 57.7 10 49.7 9.8 50.1 13.8 52.1 9.3 54.2 9.5 54.7 15.2 52.7 32.6 61.1 31.5 81.6 40.1 81.6 39 61.1 61.8 50.1 61.6 49.7 55.1 51.9 56.6 47.7 56.1 47.5 53.8 52.4 38.8 57.7 38.5 51.9 58.5 40.9 65.4 44.6 65.7 44.2 59.8 40.1"></polygon><polygon class="st0" points="49.2 55.1 39.2 59.3 39.3 60.9 61.2 50.5 49.2 55.1"></polygon><polygon class="st0" points="56.3 47.6 56.1 47.5 54 52 54.7 51.7 56.3 47.6"></polygon><polygon class="st0" points="59.3 40.8 60.1 40.4 59.8 40.1 65 37.3 64.9 37.2 38.8 50.2 38.8 51.8 58.5 40.9 65.4 44.6 65.6 44.4 59.3 40.8"></polygon><polygon class="st0" points="61 38 62.1 33.9 61.8 33.8 60.3 38.3 61 38"></polygon><polygon class="st0" points="38.3 40.9 62.8 27.3 62.8 27.2 38.2 39.5 38.3 40.9"></polygon><polygon class="st0" points="53.4 30.3 54.3 24.7 54.1 24.6 52.6 30.6 53.4 30.3"></polygon><polygon class="st0" points="37.7 30.3 58.8 15.6 58.7 15.6 37.6 29 37.7 30.3"></polygon><polygon class="st0" points="49.8 13.8 48.6 20.2 49.5 19.7 50 13.8 49.8 13.8"></polygon><polygon class="st0" points="37.1 18.4 49.4 9.1 49.4 9 37 17.5 37.1 18.4"></polygon><g><polygon class="st0" points="35.9 6.3 35.5 6.3 35 16.1 34.7 15.9 34.5 18.4 34.9 18.7 34.4 26.8 34.1 26.6 34 29 12.9 15.6 12.8 15.6 34.2 30.5 33.9 37.3 33.5 37.1 33.5 38.3 33.4 39.5 8.8 27.2 8.8 27.3 33.3 40.9 33.4 40.1 33.3 40.9 33.7 41 33.3 48 33 47.8 32.9 50.2 6.7 37.2 6.6 37.3 16.8 42.9 16.4 43.1 17.2 43.5 10.9 46.7 10.9 46.8 18.2 43.7 33.1 51.9 32.8 57.7 32.5 57.6 32.3 60.2 32.4 59.3 22.4 55.1 10.4 50.5 13.8 52.1 13.4 52.3 14.2 52.6 9.5 54.6 9.5 54.7 15.2 52.7 32.6 61.1 31.5 81.6 34.4 81.6 35.9 6.3"></polygon><polygon class="st0" points="34.6 17.5 22.2 9 22.2 9.1 34.5 18.4 34.6 17.5"></polygon></g><polygon class="st0" points="26.3 16.8 26 16.9 28.1 23 29.1 23.5 26.3 16.8"></polygon><polygon class="st0" points="14.8 28.9 12.6 23.9 12.3 24.1 14.3 28.6 14.8 28.9"></polygon><polygon class="st0" points="10.7 38 11.4 38.3 8.9 33.6 8.7 33.7 10.7 38"></polygon></g><g><g><rect class="st4" x="23.8" y="4" width="16.8" height="10.1" transform="translate(.9 20.9) rotate(-36.5)"></rect><rect class="st5" x="24.5" y="4.7" width="15.4" height="8.7" transform="translate(.9 20.9) rotate(-36.5)"></rect></g><g><rect class="st4" x="25" y="5.2" width="14.3" height="7.6" transform="translate(.9 20.9) rotate(-36.5)"></rect><rect class="st1" x="25.7" y="5.9" width="12.9" height="6.2" transform="translate(.9 20.9) rotate(-36.5)"></rect></g><polygon class="st4" points="27.8 12.7 27.4 12.1 29 11 29.4 11.5 27.8 12.7"></polygon><polygon class="st4" points="35.4 7.1 35 6.5 36.5 5.4 36.9 6 35.4 7.1"></polygon><g><path class="st4" d="M34.7,7.2c-.9-1.1-2.1-1.9-3.3-1.9s-1.1.2-1.6.5c-.7.5-1.1,1.3-1.1,2.3,0,.9.3,1.9,1,2.8.8,1.1,2.1,1.9,3.3,1.9s1.1-.2,1.6-.5c.7-.5,1.1-1.3,1.1-2.3,0-.9-.3-1.9-1-2.8Z"></path><path class="st5" d="M31.4,6c-.4,0-.8.1-1.2.4-.5.4-.8,1-.8,1.7,0,.8.3,1.6.8,2.3.7,1,1.8,1.6,2.8,1.6s.8-.1,1.2-.4c.5-.4.8-1,.8-1.7,0-.8-.3-1.6-.8-2.3-.7-1-1.8-1.6-2.8-1.6Z"></path></g></g><g><g><rect class="st4" x="7.1" y="9.9" width="10.1" height="16.8" transform="translate(-5.1 4.8) rotate(-18.4)"></rect><rect class="st5" x="7.8" y="10.6" width="8.7" height="15.4" transform="translate(-5.1 4.8) rotate(-18.4)"></rect></g><g><rect class="st4" x="8.3" y="11.1" width="7.6" height="14.3" transform="translate(-5.1 4.8) rotate(-18.4)"></rect><rect class="st1" x="9" y="11.8" width="6.2" height="12.9" transform="translate(-5.1 4.8) rotate(-18.4)"></rect></g><polygon class="st4" points="10 13 10.7 12.8 11.3 14.6 10.6 14.8 10 13"></polygon><rect class="st4" x="13.3" y="21.7" width=".7" height="1.9" transform="translate(-6.5 5.5) rotate(-18.4)"></rect><g><path class="st4" d="M13.1,21.2c1.4-.5,2.4-1.4,2.8-2.6.2-.6.2-1.1,0-1.6-.3-.8-.9-1.4-1.9-1.7-.9-.3-1.9-.3-2.9,0-1.4.5-2.4,1.4-2.8,2.6-.2.6-.2,1.1,0,1.6.3.8.9,1.4,1.9,1.7.9.3,1.9.3,2.9,0Z"></path><path class="st5" d="M15.2,18.4c.1-.4.1-.8,0-1.2-.2-.6-.7-1.1-1.4-1.3-.7-.3-1.6-.2-2.5,0-1.2.4-2.1,1.2-2.4,2.1-.1.4-.1.8,0,1.2.2.6.7,1.1,1.4,1.3.7.3,1.6.2,2.5,0,1.1-.4,2.1-1.2,2.4-2.1Z"></path></g></g><g><g><rect class="st4" x="16.8" y="36.5" width="10.1" height="16.8" transform="translate(-26.6 57) rotate(-78.1)"></rect><rect class="st5" x="17.5" y="37.2" width="8.7" height="15.4" transform="translate(-26.6 57) rotate(-78.1)"></rect></g><g><rect class="st4" x="18" y="37.7" width="7.6" height="14.3" transform="translate(-26.6 57) rotate(-78.1)"></rect><rect class="st1" x="18.7" y="38.4" width="6.2" height="12.9" transform="translate(-26.6 57) rotate(-78.1)"></rect></g><rect class="st4" x="26.1" y="44.9" width=".7" height="1.9" transform="translate(-23.9 62.3) rotate(-78.1)"></rect><polygon class="st4" points="18.3 43.8 18.1 44.5 16.2 44.1 16.4 43.4 18.3 43.8"></polygon><g><path class="st4" d="M18.8,44.2c-.3,1.4,0,2.8.8,3.7.4.4.9.7,1.4.8.8.2,1.7,0,2.4-.7.7-.6,1.2-1.5,1.4-2.6.3-1.4,0-2.8-.8-3.7-.4-.4-.9-.7-1.4-.8-.8-.2-1.7,0-2.4.7-.7.6-1.2,1.5-1.4,2.6Z"></path><path class="st5" d="M20.1,47.5c.3.3.6.5,1,.6.6.1,1.3,0,1.8-.6.6-.5,1-1.3,1.2-2.2.2-1.2,0-2.4-.6-3.1-.3-.3-.6-.5-1-.6-.6-.1-1.3,0-1.8.6-.6.5-1,1.3-1.2,2.2-.2,1.2,0,2.4.6,3.1Z"></path></g></g><g><g><rect class="st4" x="2.8" y="39.2" width="10.1" height="16.8" transform="translate(-17.8 6.7) rotate(-22.7)"></rect><rect class="st5" x="3.5" y="39.9" width="8.7" height="15.4" transform="translate(-17.8 6.7) rotate(-22.7)"></rect></g><g><rect class="st4" x="4.1" y="40.5" width="7.6" height="14.3" transform="translate(-17.8 6.7) rotate(-22.7)"></rect><rect class="st1" x="4.8" y="41.2" width="6.2" height="12.9" transform="translate(-17.8 6.7) rotate(-22.7)"></rect></g><rect class="st4" x="5.7" y="42.3" width=".7" height="1.9" transform="translate(-16.2 5.7) rotate(-22.7)"></rect><polygon class="st4" points="9 51.2 9.6 50.9 10.4 52.7 9.7 53 9 51.2"></polygon><g><path class="st4" d="M9.1,50.5c1.3-.6,2.3-1.6,2.6-2.8.1-.6.1-1.1-.1-1.6-.3-.8-1-1.3-2-1.6-.9-.2-1.9-.1-2.9.3-1.3.6-2.3,1.6-2.6,2.8-.1.6,0,1.1.1,1.6.3.8,1,1.4,2,1.6.9.2,1.9.1,2.9-.3Z"></path><path class="st5" d="M11,47.5c.1-.4,0-.8,0-1.2-.2-.6-.8-1-1.5-1.2-.8-.2-1.6-.1-2.5.2-1.1.5-2,1.3-2.2,2.3-.1.4,0,.8,0,1.2.2.6.8,1,1.5,1.2.8.2,1.6.1,2.5-.2,1.1-.5,2-1.3,2.2-2.3Z"></path></g></g><g><g><rect class="st4" x="57.2" y="18.4" width="10.1" height="16.8" transform="translate(.9 55.6) rotate(-48.5)"></rect><rect class="st5" x="57.9" y="19.1" width="8.7" height="15.4" transform="translate(.9 55.6) rotate(-48.5)"></rect></g><g><rect class="st4" x="58.4" y="19.7" width="7.6" height="14.3" transform="translate(.9 55.6) rotate(-48.5)"></rect><rect class="st1" x="59.1" y="20.4" width="6.2" height="12.9" transform="translate(.9 55.6) rotate(-48.5)"></rect></g><rect class="st4" x="65.4" y="29" width=".7" height="1.9" transform="translate(-.3 59.3) rotate(-48.5)"></rect><rect class="st4" x="58.4" y="22.7" width=".7" height="1.9" transform="translate(2 52) rotate(-48.5)"></rect><g><path class="st4" d="M59.9,24.8c-.9,1.1-1.4,2.5-1.1,3.6.1.6.4,1.1.8,1.4.6.6,1.5.8,2.5.6.9-.2,1.8-.7,2.5-1.5.9-1.1,1.4-2.5,1.1-3.6-.1-.6-.4-1.1-.8-1.4-.6-.6-1.5-.8-2.5-.6-.9.2-1.8.7-2.5,1.5Z"></path><path class="st5" d="M59.4,28.2c0,.4.3.8.6,1.1.5.4,1.1.6,1.9.4.8-.2,1.5-.6,2.1-1.3.8-.9,1.2-2.1,1-3,0-.4-.3-.8-.6-1.1-.5-.4-1.1-.6-1.9-.4-.8.2-1.5.6-2.1,1.3-.8.9-1.2,2.1-1,3Z"></path></g></g><g><g><rect class="st4" x="50.8" y="34.6" width="16.8" height="10.1" transform="translate(-11.3 29.7) rotate(-25.8)"></rect><rect class="st5" x="51.5" y="35.3" width="15.4" height="8.7" transform="translate(-11.3 29.7) rotate(-25.8)"></rect></g><g><rect class="st4" x="52.1" y="35.8" width="14.3" height="7.6" transform="translate(-11.3 29.7) rotate(-25.8)"></rect><rect class="st1" x="52.8" y="36.5" width="12.9" height="6.2" transform="translate(-11.3 29.7) rotate(-25.8)"></rect></g><polygon class="st4" points="64.1 36.8 64.4 37.5 62.7 38.3 62.4 37.7 64.1 36.8"></polygon><rect class="st4" x="54" y="41.3" width="1.9" height=".7" transform="translate(-12.6 28) rotate(-25.7)"></rect><g><path class="st4" d="M56.4,41c.6,1.3,1.7,2.2,2.9,2.4.6.1,1.1,0,1.6-.2.8-.4,1.3-1.1,1.5-2.1.2-.9,0-2-.4-2.9-.6-1.3-1.7-2.2-2.9-2.4-.6-.1-1.1,0-1.6.2-.8.4-1.3,1.1-1.5,2.1-.2.9,0,1.9.4,2.9Z"></path><path class="st5" d="M59.4,42.7c.4,0,.8,0,1.2-.1.6-.3,1-.8,1.1-1.6.2-.8,0-1.6-.4-2.5-.5-1.1-1.5-1.9-2.4-2.1-.4,0-.8,0-1.2.1-.6.3-1,.8-1.1,1.6-.2.8,0,1.6.4,2.5.5,1.1,1.5,1.9,2.4,2.1Z"></path></g></g><g><g><rect class="st4" x="43.6" y="28.1" width="10.1" height="16.8" transform="translate(-5.3 8.4) rotate(-9.4)"></rect><rect class="st5" x="44.3" y="28.8" width="8.7" height="15.4" transform="translate(-5.3 8.4) rotate(-9.4)"></rect></g><g><rect class="st4" x="44.8" y="29.4" width="7.6" height="14.3" transform="translate(-5.3 8.4) rotate(-9.4)"></rect><rect class="st1" x="45.5" y="30.1" width="6.2" height="12.9" transform="translate(-5.3 8.4) rotate(-9.4)"></rect></g><rect class="st4" x="47.5" y="30.9" width=".7" height="1.9" transform="translate(-4.6 8.2) rotate(-9.4)"></rect><rect class="st4" x="49" y="40.2" width=".7" height="1.9" transform="translate(-6.1 8.6) rotate(-9.4)"></rect><g><path class="st4" d="M49.1,39.6c1.4-.2,2.6-1,3.2-2.1.3-.5.4-1.1.3-1.6-.1-.8-.7-1.6-1.6-2-.8-.4-1.9-.6-2.9-.4-1.4.2-2.6,1-3.2,2.1-.3.5-.4,1.1-.3,1.6.1.8.7,1.6,1.6,2,.8.4,1.9.6,2.9.4Z"></path><path class="st5" d="M51.7,37.2c.2-.4.3-.8.2-1.2-.1-.6-.5-1.2-1.2-1.5-.7-.4-1.6-.5-2.5-.3-1.2.2-2.2.9-2.7,1.7-.2.4-.3.8-.2,1.2.1.6.5,1.2,1.2,1.5.7.4,1.6.5,2.5.3,1.2-.2,2.2-.9,2.7-1.7Z"></path></g></g></svg> 