<?xml version="1.0" encoding="UTF-8"?> <svg xmlns="http://www.w3.org/2000/svg" id="Layer_1" version="1.1" viewBox="0 0 62.7 40.5"><defs><style> .st0 { fill: #ff6900; } .st1 { fill: #2eadc4; } .st2 { fill: #491904; } .st3 { fill: #ffb03a; } .st4 { fill: #021823; } .st5 { fill: #006ea0; } </style></defs><g><path class="st2" d="M5.8,0h51.1c3.2,0,5.8,2.6,5.8,5.8v29c0,3.2-2.6,5.8-5.8,5.8H5.8c-3.2,0-5.8-2.6-5.8-5.8V5.8C0,2.6,2.6,0,5.8,0Z"></path><path class="st3" d="M5.8.7h51.1c2.8,0,5.1,2.3,5.1,5.1v29c0,2.8-2.3,5.1-5.1,5.1H5.8c-2.8,0-5.1-2.3-5.1-5.1V5.8C.7,3,3,.7,5.8.7Z"></path><path class="st0" d="M2.8,38.9c.8.6,1.9,1,3,1h16.2L51.8.7h-19.9L2.8,38.9Z"></path><path class="st0" d="M56.9.7h-.8l-29.8,39.1h9L61.9,4.9c-.4-2.4-2.5-4.2-5-4.2Z"></path></g><g><path class="st4" d="M8.9,5.8h5.9c2.1,0,3.8,1.7,3.8,3.8v4.2c0,2.1-1.7,3.8-3.8,3.8h-5.9c-2.1,0-3.8-1.7-3.8-3.8v-4.2c0-2.1,1.7-3.8,3.8-3.8Z"></path><g><path class="st1" d="M12.3,8.1v.5h1.6c-.5-.3-1-.5-1.6-.5Z"></path><path class="st1" d="M8.9,8.7c.7-.7,1.6-1.2,2.7-1.2v-.9h-2.6c-1.4,0-2.5.9-3,2.2h2.9Z"></path><path class="st1" d="M15.5,12.1h-3.2v2h2.4c.5-.6.8-1.2.9-2Z"></path><path class="st1" d="M14.6,9.4h-2.4v2h3.2c0-.8-.4-1.5-.9-2Z"></path><path class="st1" d="M12.3,14.8v.5c.6,0,1.1-.2,1.6-.5h-1.6Z"></path><path class="st1" d="M12.3,7.4c1,0,2,.5,2.7,1.2h2.9c-.4-1.2-1.6-2.2-3-2.2h-2.6v.9Z"></path><path class="st1" d="M16.2,12.1c0,.7-.3,1.4-.7,2h2.5c0,0,0-.2,0-.3v-1.7h-1.8Z"></path><path class="st1" d="M16.2,11.4h1.8v-1.7c0,0,0-.2,0-.3h-2.5c.4.6.6,1.3.7,2Z"></path><path class="st1" d="M5.8,9.4c0,0,0,.2,0,.3v1.7h1.8c0-.7.3-1.4.7-2h-2.5Z"></path><path class="st1" d="M11.6,16c-1,0-2-.5-2.7-1.2h-2.9c.4,1.2,1.6,2.2,3,2.2h2.6v-.9Z"></path><path class="st1" d="M15,14.8c-.7.7-1.6,1.2-2.7,1.2v.9h2.6c1.4,0,2.6-.9,3-2.2h-2.9Z"></path><path class="st1" d="M7.6,12.1h-1.8v1.7c0,0,0,.2,0,.3h2.5c-.4-.6-.6-1.3-.7-2Z"></path><path class="st1" d="M9.2,14.1h2.4v-2h-3.2c0,.8.4,1.5.9,2Z"></path><path class="st1" d="M11.6,14.8h-1.6c.5.3,1,.5,1.6.5v-.5Z"></path><path class="st1" d="M11.6,8.1c-.6,0-1.1.2-1.6.5h1.6v-.5Z"></path><path class="st1" d="M8.3,11.4h3.2v-2h-2.4c-.5.6-.8,1.3-.9,2Z"></path></g></g><g><path class="st4" d="M5.4,26.5h.8v-2.1h-.7v-.5c.4,0,.7-.2.9-.3h.6v3h.7v.7h-2.3v-.7Z"></path><path class="st4" d="M8.3,26.7c.9-.9,1.6-1.5,1.6-2s-.2-.6-.5-.6-.5.2-.7.4l-.5-.5c.4-.4.7-.6,1.2-.6s1.2.5,1.2,1.2-.6,1.3-1.2,1.9c.2,0,.4,0,.6,0h.7v.7h-2.6v-.5Z"></path><path class="st4" d="M11.6,26.2c.2.2.5.4.8.4s.6-.2.6-.4-.2-.5-1-.5v-.6c.7,0,.9-.2.9-.5s-.2-.4-.5-.4-.5.1-.7.3l-.4-.5c.3-.3.7-.5,1.2-.5.8,0,1.3.4,1.3,1s-.2.7-.6.8h0c.4.1.7.4.7.9,0,.7-.6,1.1-1.4,1.1s-1-.2-1.3-.5l.4-.5Z"></path><path class="st4" d="M17.1,26.3h-.4v.9h-.8v-.9h-1.6v-.6l1.3-2.2h1v2.2h.4v.6ZM15.9,25.6v-.6c0-.2,0-.6,0-.8h0c0,.2-.2.4-.3.6l-.5.8h.8Z"></path><path class="st4" d="M19,26.2c.2.2.5.4.8.4s.6-.2.6-.6-.2-.6-.6-.6-.3,0-.5.2l-.4-.2v-1.9h2.2v.7h-1.4v.7c0,0,.2,0,.3,0,.6,0,1.2.4,1.2,1.1s-.6,1.3-1.4,1.3-1-.2-1.3-.5l.4-.5Z"></path><path class="st4" d="M23.9,24.4c-.1-.1-.4-.3-.6-.3-.4,0-.7.3-.8,1.2.2-.2.5-.4.7-.4.6,0,1.1.4,1.1,1.1s-.6,1.2-1.2,1.2-1.4-.5-1.4-1.8.7-2,1.5-2,.8.2,1.1.4l-.4.5ZM23.6,26c0-.4-.2-.5-.5-.5s-.4,0-.6.4c0,.6.3.8.6.8s.5-.2.5-.6Z"></path><path class="st4" d="M26.5,24.2h-1.7v-.7h2.6v.5c-.9,1-1,1.7-1,3.2h-.9c0-1.2.3-2,1-3Z"></path><path class="st4" d="M28.5,25.3h0c-.3-.2-.5-.5-.5-.9,0-.6.5-1,1.2-1s1.1.4,1.1,1-.2.6-.5.8h0c.4.2.6.5.6,1s-.5,1-1.3,1-1.3-.4-1.3-1,.3-.7.6-.9ZM29.2,26.6c.3,0,.5-.2.5-.5s-.3-.4-.8-.6c-.2.2-.3.4-.3.6,0,.3.3.5.6.5ZM29.7,24.5c0-.3-.2-.5-.4-.5s-.4.1-.4.4.3.4.6.6c.1-.2.2-.3.2-.5Z"></path><path class="st4" d="M32.7,26.3c.1.1.4.3.6.3.4,0,.7-.3.8-1.2-.2.2-.5.4-.7.4-.6,0-1.1-.4-1.1-1.1s.6-1.2,1.2-1.2,1.4.5,1.4,1.8-.7,2-1.5,2-.8-.2-1.1-.4l.5-.5ZM34,24.8c0-.6-.3-.8-.6-.8s-.5.2-.5.6.2.5.5.5.4-.1.6-.4Z"></path><path class="st4" d="M35.9,25.3h0c-.3-.2-.5-.5-.5-.9,0-.6.5-1,1.2-1s1.1.4,1.1,1-.2.6-.5.8h0c.4.2.6.5.6,1s-.5,1-1.3,1-1.3-.4-1.3-1,.3-.7.6-.9ZM36.6,26.6c.3,0,.5-.2.5-.5s-.3-.4-.8-.6c-.2.2-.3.4-.3.6,0,.3.3.5.6.5ZM37,24.5c0-.3-.2-.5-.4-.5s-.4.1-.4.4.3.4.6.6c.1-.2.2-.3.2-.5Z"></path><path class="st4" d="M40,24.2h-1.7v-.7h2.6v.5c-.9,1-1,1.7-1,3.2h-.9c0-1.2.3-2,1-3Z"></path><path class="st4" d="M43.5,24.4c-.1-.1-.4-.3-.6-.3-.4,0-.7.3-.8,1.2.2-.2.5-.4.7-.4.6,0,1.1.4,1.1,1.1s-.6,1.2-1.2,1.2-1.4-.5-1.4-1.8.7-2,1.5-2,.8.2,1.1.4l-.4.5ZM43.2,26c0-.4-.2-.5-.5-.5s-.4,0-.6.4c0,.6.3.8.6.8s.5-.2.5-.6Z"></path><path class="st4" d="M46,26.2c.2.2.5.4.8.4s.6-.2.6-.6-.2-.6-.6-.6-.3,0-.5.2l-.4-.2v-1.9h2.2v.7h-1.4v.7c0,0,.2,0,.3,0,.6,0,1.2.4,1.2,1.1s-.6,1.3-1.4,1.3-1-.2-1.3-.5l.4-.5Z"></path><path class="st4" d="M51.4,26.3h-.4v.9h-.8v-.9h-1.6v-.6l1.3-2.2h1v2.2h.4v.6ZM50.2,25.6v-.6c0-.2,0-.6,0-.8h0c0,.2-.2.4-.3.6l-.5.8h.8Z"></path><path class="st4" d="M52.1,26.2c.2.2.5.4.8.4s.6-.2.6-.4-.2-.5-1-.5v-.6c.7,0,.9-.2.9-.5s-.2-.4-.5-.4-.5.1-.7.3l-.4-.5c.3-.3.7-.5,1.2-.5.8,0,1.3.4,1.3,1s-.2.7-.6.8h0c.4.1.7.4.7.9,0,.7-.6,1.1-1.4,1.1s-1-.2-1.3-.5l.4-.5Z"></path><path class="st4" d="M54.9,26.7c.9-.9,1.6-1.5,1.6-2s-.2-.6-.5-.6-.5.2-.7.4l-.5-.5c.4-.4.7-.6,1.2-.6s1.2.5,1.2,1.2-.6,1.3-1.2,1.9c.2,0,.4,0,.6,0h.7v.7h-2.6v-.5Z"></path></g><g><path class="st4" d="M40,5.7h-2.7l-2.8,8.9h2.6l.5-1.9h1.9l.5,1.9h2.7l-2.8-8.9ZM39,10.5h-.8v-.3c.2-.4.3-.9.4-1.3.1.5.2.9.3,1.3v.3Z"></path><path class="st4" d="M47.5,5.7v3.2c0,.3,0,.7,0,1l-2.2-4.3h-2.5v8.9h2.5v-3.2c0-.3,0-.7,0-1l2.2,4.3h2.5V5.7h-2.5Z"></path><polygon class="st4" points="55.8 9.3 58.5 5.7 55.6 5.7 53.7 8.4 53.7 5.7 51.1 5.7 51.1 14.5 53.7 14.5 53.7 12.1 54.2 11.4 56.1 14.5 58.9 14.5 55.8 9.3"></polygon><g><path class="st4" d="M33.7,9.8c.6-.5.8-1.2.8-1.7,0-1.6-1.1-2.4-3.3-2.4h-3.1v8.9h3.4c2.2,0,3.5-1.1,3.5-2.8s-.2-1.5-1.2-2ZM31.1,9h-.5v-1.2h.5c.9,0,.9.3.9.5s0,.7-.9.7ZM30.6,11h.7c1.2,0,1.2.4,1.2.7s0,.8-1.2.8h-.7v-1.4Z"></path><path class="st1" d="M32.8,10.2h-.3v-.6h.3c.8-.3,1.1-1,1.1-1.5s-.3-1.7-2.7-1.7h-2.4v7.5h2.7c.8,0,2.8-.2,2.8-2.1s-.5-1.4-1.5-1.6ZM29.9,7.1h1.2c1.1,0,1.6.4,1.6,1.2s-.2,1.3-1.6,1.3h-1.2v-2.6ZM31.3,13.1h-1.4v-2.8h1.4c1.2,0,1.9.5,1.9,1.4s-.2,1.5-1.9,1.5Z"></path></g><path class="st1" d="M40.1,11.9l.5,1.9h1.2l-2.3-7.5h-1.7l-2.3,7.5h1.1l.5-1.9h3ZM37.6,10c.2-.7.4-1.5.5-2.2l.2-.7h.6l.3,1c.2.6.3,1.3.5,1.9l.3,1.2h-2.6l.3-1.2Z"></path><path class="st1" d="M47.9,13.9h1.3v-7.5h-1.1v2.5c0,.7,0,1.5.2,2.2,0,.3,0,.5,0,.7v.4s-.6,0-.6,0v-.2c-.1,0-.9-1.8-.9-1.8l-2-3.8h-1.3v7.5h1.1v-2.5c0-.7,0-1.4-.1-2.1,0-.3,0-.6,0-.8v-.4s.6,0,.6,0v.2c.1,0,.9,1.8.9,1.8l2,3.9Z"></path><polygon class="st1" points="56.5 13.9 57.7 13.9 55 9.3 57.1 6.4 56 6.4 53.6 9.7 53 9.7 53 9.4 53 6.4 51.8 6.4 51.8 13.9 53 13.9 53 11.9 54.3 10.1 56.5 13.9"></polygon></g><g><rect class="st4" x="5.2" y="29.6" width="52.4" height="3.4"></rect><rect class="st5" x="5.9" y="30.3" width="51" height="2"></rect></g><g><rect class="st4" x="5.2" y="33.4" width="52.4" height="3.4"></rect><rect class="st5" x="5.9" y="34.1" width="51" height="2"></rect></g></svg> 