<?xml version="1.0" encoding="UTF-8"?> <svg xmlns="http://www.w3.org/2000/svg" xmlns:xlink="http://www.w3.org/1999/xlink" id="Layer_1" version="1.1" viewBox="0 0 66.9 61.1"><defs><style> .st0 { fill: none; } .st1 { fill: #ff6900; } .st2 { fill: #2eadc4; } .st3 { fill: #491904; } .st4 { fill: #ffb03a; } .st5 { fill: #021823; } .st6 { fill: #006ea0; } .st7 { clip-path: url(#clippath); } </style><clipPath id="clippath"><path class="st0" d="M40.4,18L42.9.6c-5.8-1-17.2-.7-23.1.2l2.6,17.2c2.9-.5,5.9-.7,8.9-.7s6.1.2,9,.7Z"></path></clipPath></defs><g><path class="st3" d="M51.6,31.6l-4.8-4.7,11.8-12.1,1.1,11.8-8.1,5Z"></path><g><polygon class="st1" points="59 26.3 58.2 17 52.5 30.3 59 26.3"></polygon><polygon class="st4" points="57.3 17.2 47.8 26.9 51.6 30.6 57.3 17.2"></polygon></g></g><path class="st3" d="M56,47.4h0l-12.8,5.9-.6.3c1.7,2.1,3.2,5.1,3.3,5.9v.3h5.5v-.3c0,0,1.4-7.6,4.7-11.4.2-.3.5-.6.5-.9l-.4.2Z"></path><path class="st1" d="M43.2,53.3c1.6,2,2.9,4.7,3.2,5.8h4.2c.3-1.4,1.7-7.8,4.7-11.4l.6-.3h0l-12.8,5.9h0Z"></path><g><path class="st3" d="M27.5,53.4h-14.1c1,2.7,1.5,4.7,1.6,6v.3s.3,0,.3,0c.7,0,1.7,0,2.9,0,2,0,4,0,4.1,0h.3s0-.3,0-.3c0,0,.7-4.2,5.9-6h-1Z"></path><path class="st1" d="M18.1,59.1c1.6,0,3.2,0,3.8,0,.2-.9,1.2-3.8,4.8-5.6h-12.6c.9,2.4,1.4,4.3,1.5,5.6.7,0,1.5,0,2.6,0Z"></path></g><path class="st3" d="M66.5,32.6s-1.5,0-3.3-.4c-.4,0-.8-.4-1.4-.8-2.1-10.7-15.3-18.7-30.8-18.7S0,22.4,0,34.3s2,9,5.9,12.7c3.2,6.7,4.9,11.5,5,13.8v.3s.3,0,.3,0c.7,0,1.7,0,2.9,0,2,0,4,0,4.1,0h.3s0-.3,0-.3c0,0,.6-3.6,4.8-5.6,2.5.4,5.1.7,7.6.7h.1c2.9,0,5.9-.3,8.8-.9,1.7,2.1,3.1,5.1,3.2,5.8v.3h5.5v-.3c0,0,1.1-6,3.7-10,1.9-.9,3.5-1.8,4.8-2.5,1.2-.7,2.2-1.2,2.8-1.5,3.1-1.1,6.6-1.4,6.6-1.4h.3v-12.8h-.3Z"></path><path class="st4" d="M51.8,50.3h0c1.9-1,3.6-1.9,4.9-2.6,1.3-.7,2.3-1.3,2.9-1.5,2.6-.9,5.5-1.3,6.5-1.4v-11.4c-.6,0-1.8-.1-3.1-.4-.5-.1-1.1-.5-1.7-1h0c0,0,0-.2,0-.2-1.9-10.4-14.9-18.2-30.1-18.2S.7,22.7.7,34.3s2,8.6,5.7,12.2h0c3.1,6.7,4.8,11.4,5,13.9.7,0,1.5,0,2.6,0,1.6,0,3.1,0,3.8,0,.2-1,1.3-4.1,5.2-5.9h0s.1,0,.1,0c2.5.4,5,.7,7.6.7h.1c3,0,5.9-.3,8.9-.9h.2s.1.1.1.1c1.6,2,3.1,4.8,3.4,6h4.2c.3-1.3,1.4-6.4,3.7-10.1h0Z"></path><path class="st3" d="M58.6,33.7c0,.8-.7,1.5-1.5,1.5s-1.5-.7-1.5-1.5.7-1.5,1.5-1.5,1.5.7,1.5,1.5Z"></path><g><path class="st3" d="M49.4,31.8l-6-3,7.5-15.2,4.6,10.9-6.2,7.2Z"></path><g><polygon class="st1" points="54.7 24.4 51.1 15.9 49.7 30.3 54.7 24.4"></polygon><polygon class="st4" points="50.3 16.3 44.3 28.5 49 30.8 50.3 16.3"></polygon></g></g><path class="st1" d="M59.7,46.2c2.6-.9,5.5-1.3,6.5-1.4v-3.2c-3.4-.1-8.3-4.2-19.6.8-8,3.5-17.1,5.8-21.5,5.4-3.3-.3-6.7-1-10-2.4-5.5-2.4-12.2-5.8-14.1-14-.2,1-.3,2-.3,3,0,4.4,2,8.6,5.7,12.2h0c.1.4.2.6.4.9,2.8,2.5,6.4,4.6,10.6,6-1.6,2.1-2.8,4.9-3.4,7.1h0c1.6,0,3.1,0,3.8,0,.2-1,1.3-4.1,5.2-5.9h0s.1,0,.1,0c2.5.4,5,.7,7.6.7h.1c3,0,5.9-.3,8.9-.9h.2s.1.1.1.1c1.6,2,3.1,4.8,3.4,6h1.9c-.6-2.5-1.9-4.6-3.2-6.4,3.5-.9,6.5-2.1,9-3.3,0-.2.2-.3.3-.5h0c0,0,0-.1,0-.1,1.9-.9,3.6-1.8,4.9-2.6,1.3-.7,2.3-1.3,2.9-1.5Z"></path><g><path class="st3" d="M41.1,18.9h-.4c-6-1.1-12.4-1.1-18.5,0h-.4c0,0,0-3.8,0-3.8h.3c6.1-1.1,12.7-1,18.8,0h.3v3.8Z"></path><path class="st1" d="M40.4,18v-2.4c-5.8-1-12.1-1-17.9,0v2.4c2.9-.5,5.9-.7,8.9-.7s6.1.2,9,.7Z"></path></g><g class="st7"><g><g><path class="st5" d="M31.4.3c-5.4,0-9.8,4.4-9.8,9.8s4.4,9.8,9.8,9.8,9.8-4.4,9.8-9.8S36.8.3,31.4.3Z"></path><path class="st2" d="M35.2,18.3c.9-.4,1.7-.9,2.4-1.6l-1.8-1.8.5-.5,1.8,1.8c.6-.7,1.2-1.5,1.6-2.4l-2.4-1,.3-.6,2.4,1c.3-.9.5-1.8.6-2.8h-2.6v-.7h2.6c0-1-.2-1.9-.6-2.8l-2.4,1-.3-.6,2.4-1c-.4-.9-.9-1.7-1.6-2.4l-1.9,1.9-.5-.5,1.9-1.9c-.7-.6-1.5-1.2-2.4-1.6l-1,2.4-.6-.3,1-2.4c-.9-.3-1.8-.5-2.8-.6v2.6h-.7V1.1c-1,0-1.9.2-2.8.6l1,2.4-.6.3-1-2.4c-.9.4-1.7.9-2.4,1.6l1.9,1.9-.5.5-1.9-1.9c-.6.7-1.2,1.5-1.6,2.4l2.4,1-.3.6-2.4-1c-.3.9-.5,1.8-.6,2.8h2.6v.7h-2.6c0,1,.2,1.9.6,2.8l2.3-1,.3.6-2.3,1c.4.9.9,1.7,1.6,2.4l1.8-1.8.5.5-1.8,1.8c.7.6,1.5,1.2,2.4,1.6l1-2.4.6.3-1,2.4c.9.3,1.8.5,2.8.6v-2.6h.7v2.6c1,0,1.9-.2,2.8-.6l-1-2.4.6-.3,1,2.4Z"></path></g><g><path class="st5" d="M31.4,3.3c-3.8,0-6.8,3.1-6.8,6.8s3.1,6.8,6.8,6.8,6.8-3.1,6.8-6.8-3-6.8-6.8-6.8Z"></path><path class="st6" d="M31.4,4c-3.4,0-6.1,2.7-6.1,6.1s2.7,6.1,6.1,6.1,6.1-2.7,6.1-6.1-2.7-6.1-6.1-6.1Z"></path></g><g><path class="st5" d="M31.8,8.5c-.2,0-.4,0-.6,0v-.8h3.2v-2.4h-5.5l-.3,4.9,1.2.8h.2c.5-.4.7-.5,1.1-.5s1,.1,1,1-.6,1-1.1,1-1.1-.2-1.6-.8l-.3-.3-1.3,1.8.2.2c.9.9,2,1.3,3.3,1.3s3.5-1.1,3.5-3.3-1.2-3-3.1-3Z"></path><path class="st2" d="M31.8,9.2c-.3,0-.5,0-.8.2l-.5.3.2-2.5h3.1v-1h-4.2l-.2,3.8.5.3c.4-.3.7-.4,1.3-.4,1,0,1.7.7,1.7,1.7s-.7,1.7-1.8,1.7-1.2-.2-1.8-.7l-.5.7c.7.6,1.5.9,2.6.9s2.8-.8,2.8-2.6-1.8-2.3-2.4-2.3Z"></path></g></g></g></svg> 