<?xml version="1.0" encoding="UTF-8"?> <svg xmlns="http://www.w3.org/2000/svg" id="Layer_1" version="1.1" viewBox="0 0 52.5 57"><defs><style> .st0 { fill: #ff6900; } .st1 { fill: #2eadc4; } .st2 { fill: #fff; } .st3 { fill: #491904; } .st4 { fill: #021823; } .st5 { fill: #006ea0; } </style></defs><g><rect class="st4" width="52.5" height="57"></rect><rect class="st5" x=".7" y=".7" width="51.2" height="55.6"></rect></g><g><rect class="st4" x="1.9" y="1.9" width="48.7" height="53.2"></rect><rect class="st1" x="2.6" y="2.6" width="47.3" height="51.8"></rect></g><g><rect class="st4" x="5" y="5.6" width="42.5" height="9.8"></rect><rect class="st5" x="5.7" y="6.3" width="41.1" height="8.4"></rect></g><g><rect class="st4" x="6.3" y="6.9" width="40" height="7.3"></rect><rect class="st2" x="7" y="7.6" width="38.6" height="5.9"></rect><polygon class="st1" points="16.2 13.5 30.6 13.5 35.1 7.6 20.7 7.6 16.2 13.5"></polygon><polygon class="st1" points="33.4 13.5 40 13.5 44.5 7.6 37.9 7.6 33.4 13.5"></polygon></g><g><rect class="st4" x="5" y="18.7" width="7.6" height="4.9"></rect><rect class="st5" x="5.7" y="19.4" width="6.2" height="3.5"></rect></g><g><rect class="st4" x="14.1" y="18.7" width="7.6" height="4.9"></rect><rect class="st5" x="14.8" y="19.4" width="6.2" height="3.5"></rect></g><g><rect class="st4" x="23.2" y="18.7" width="7.6" height="4.9"></rect><rect class="st5" x="23.9" y="19.4" width="6.2" height="3.5"></rect></g><g><rect class="st4" x="5" y="25.7" width="7.6" height="4.9"></rect><rect class="st5" x="5.7" y="26.4" width="6.2" height="3.5"></rect></g><g><rect class="st4" x="14.1" y="25.7" width="7.6" height="4.9"></rect><rect class="st5" x="14.8" y="26.4" width="6.2" height="3.5"></rect></g><g><rect class="st4" x="23.2" y="25.7" width="7.6" height="4.9"></rect><rect class="st5" x="23.9" y="26.4" width="6.2" height="3.5"></rect></g><g><rect class="st4" x="5" y="32.6" width="7.6" height="4.9"></rect><rect class="st5" x="5.7" y="33.3" width="6.2" height="3.5"></rect></g><g><rect class="st4" x="14.1" y="32.6" width="7.6" height="4.9"></rect><rect class="st5" x="14.8" y="33.3" width="6.2" height="3.5"></rect></g><g><rect class="st4" x="23.2" y="32.6" width="7.6" height="4.9"></rect><rect class="st5" x="23.9" y="33.3" width="6.2" height="3.5"></rect></g><g><rect class="st4" x="5" y="39.6" width="7.6" height="4.9"></rect><rect class="st5" x="5.7" y="40.3" width="6.2" height="3.5"></rect></g><g><rect class="st4" x="14.1" y="39.6" width="7.6" height="4.9"></rect><rect class="st5" x="14.8" y="40.3" width="6.2" height="3.5"></rect></g><g><rect class="st4" x="23.2" y="39.6" width="7.6" height="4.9"></rect><rect class="st5" x="23.9" y="40.3" width="6.2" height="3.5"></rect></g><g><rect class="st3" x="5" y="46.5" width="7.6" height="4.9"></rect><rect class="st0" x="5.7" y="47.2" width="6.2" height="3.5"></rect></g><g><rect class="st3" x="14.1" y="46.5" width="7.6" height="4.9"></rect><rect class="st0" x="14.8" y="47.2" width="6.2" height="3.5"></rect></g><g><rect class="st4" x="23.2" y="46.5" width="7.6" height="4.9"></rect><rect class="st5" x="23.9" y="47.2" width="6.2" height="3.5"></rect></g><g><rect class="st4" x="36.4" y="18.7" width="4.9" height="4.9"></rect><rect class="st5" x="37.1" y="19.4" width="3.5" height="3.5"></rect></g><g><rect class="st4" x="42.6" y="18.7" width="4.9" height="4.9"></rect><rect class="st5" x="43.3" y="19.4" width="3.5" height="3.5"></rect></g><g><rect class="st4" x="36.4" y="25.7" width="4.9" height="4.9"></rect><rect class="st5" x="37.1" y="26.4" width="3.5" height="3.5"></rect></g><g><rect class="st4" x="42.6" y="25.7" width="4.9" height="4.9"></rect><rect class="st5" x="43.3" y="26.4" width="3.5" height="3.5"></rect></g><g><rect class="st4" x="36.4" y="32.6" width="4.9" height="4.9"></rect><rect class="st5" x="37.1" y="33.3" width="3.5" height="3.5"></rect></g><g><rect class="st4" x="42.6" y="32.6" width="4.9" height="4.9"></rect><rect class="st5" x="43.3" y="33.3" width="3.5" height="3.5"></rect></g><g><rect class="st4" x="36.4" y="39.6" width="4.9" height="4.9"></rect><rect class="st5" x="37.1" y="40.3" width="3.5" height="3.5"></rect></g><g><rect class="st4" x="42.6" y="39.6" width="4.9" height="4.9"></rect><rect class="st5" x="43.3" y="40.3" width="3.5" height="3.5"></rect></g><g><rect class="st4" x="36.4" y="46.5" width="4.9" height="4.9"></rect><rect class="st5" x="37.1" y="47.2" width="3.5" height="3.5"></rect></g><g><rect class="st4" x="42.6" y="46.5" width="4.9" height="4.9"></rect><rect class="st5" x="43.3" y="47.2" width="3.5" height="3.5"></rect></g></svg> 