<?xml version="1.0" encoding="UTF-8"?> <svg xmlns="http://www.w3.org/2000/svg" id="Layer_1" version="1.1" viewBox="0 0 65.7 59.3"><defs><style> .st0 { fill: #ff6900; } .st1 { fill: #2eadc4; } .st2 { fill: #491904; } .st3 { fill: #021823; } .st4 { fill: #006ea0; } </style></defs><g><rect class="st2" x="49.1" y="18.1" width="6.5" height="34"></rect><rect class="st0" x="49.8" y="18.8" width="5.1" height="32.6"></rect></g><g><rect class="st3" x="40.7" y="12.5" width="6.5" height="39.7"></rect><rect class="st4" x="41.4" y="13.2" width="5.1" height="38.3"></rect></g><g><rect class="st3" x="32.3" y="24.4" width="6.5" height="27.7"></rect><rect class="st1" x="33" y="25.1" width="5.1" height="26.4"></rect></g><g><rect class="st3" x="23.8" y="27.2" width="6.5" height="24.9"></rect><rect class="st1" x="24.5" y="27.9" width="5.1" height="23.5"></rect></g><g><rect class="st3" x="15.4" y="32.6" width="6.5" height="19.5"></rect><rect class="st1" x="16.1" y="33.3" width="5.1" height="18.1"></rect></g><g><rect class="st3" x="6.9" y="42.3" width="6.5" height="9.8"></rect><rect class="st1" x="7.6" y="43" width="5.1" height="8.4"></rect></g><g><polygon class="st3" points="65.7 55.2 61.6 51.1 61.6 54.1 5.3 54.1 5.3 4.3 8.3 4.3 4.1 .2 0 4.3 3 4.3 3 56.3 4.9 56.3 5.3 56.3 61.6 56.3 61.6 59.3 65.7 55.2"></polygon><polygon class="st1" points="64.7 55.2 62.3 52.8 62.3 54.8 4.6 54.8 4.6 3.6 6.6 3.6 4.1 1.2 1.7 3.6 3.7 3.6 3.7 55.6 4.9 55.6 62.3 55.6 62.3 57.6 64.7 55.2"></polygon></g><g><path class="st2" d="M19.6,9.8c-1.3-.6-2.4-1.2-2.4-2s.2-1.4,1.6-1.4,1.7.3,2.7,1.2l.3.2,2.4-2.7-.2-.2c-1.2-1.3-2.4-2-3.9-2.2V0h-3.3v2.8c-2.5.6-4,2.6-4,5.2s2.5,4.2,4.4,5.2c1.4.7,2.6,1.3,2.6,2.3s-.2,1.5-1.8,1.5-2.2-.4-3.6-1.5l-.3-.2-2.1,3.2.2.2c1.3,1.2,3.2,1.8,4.6,2.1v2.7h3.3v-2.8c2.6-.7,4.1-2.7,4.1-5.4s-2.6-4.4-4.6-5.4Z"></path><path class="st0" d="M23.6,15.2c0-2.8-2.2-3.8-4.2-4.8-1.5-.7-2.8-1.3-2.8-2.6s.4-2.1,2.3-2.1,1.9.3,2.9,1.2l1.5-1.7c-1.1-1.1-2.2-1.7-3.5-1.8h-.3V.7h-1.9v2.7h-.3c-2.4.5-3.8,2.2-3.8,4.6s2.1,3.6,4,4.6c1.5.8,3,1.5,3,2.9s-.8,2.2-2.5,2.2-2.3-.4-3.7-1.4l-1.3,2.1c1.3,1.1,3,1.6,4.3,1.7h.3v2.7h1.9v-2.7h.3c2.5-.6,3.9-2.3,3.9-4.8Z"></path></g></svg> 